<!DOCTYPE svg PUBLIC "-//W3C//DTD SVG 1.1//EN" "http://www.w3.org/Graphics/SVG/1.1/DTD/svg11.dtd">
<!-- Uploaded to: SVG Repo, www.svgrepo.com, Transformed by: SVG Repo Mixer Tools -->
<svg fill="#000000" version="1.1" id="Capa_1" xmlns="http://www.w3.org/2000/svg" xmlns:xlink="http://www.w3.org/1999/xlink" width="800px" height="800px" viewBox="-50.23 -50.23 602.76 602.76" xml:space="preserve" transform="matrix(-1, 0, 0, 1, 0, 0)">
<g id="SVGRepo_bgCarrier" stroke-width="0">
<rect x="-50.23" y="-50.23" width="602.76" height="602.76" rx="301.38" fill="#7ed0ec" strokewidth="0"/>
</g>
<g id="SVGRepo_tracerCarrier" stroke-linecap="round" stroke-linejoin="round"/>
<g id="SVGRepo_iconCarrier"> <g> <path d="M500.824,154.513l-0.011-0.005c-0.005-0.005-0.005-0.005-0.005-0.005l-18.364-18.506v-1.223h-1.209L368.541,21.236 l-0.312-2.552c-0.313-2.55-2.47-4.468-5.028-4.468h-1.633l-1.39-1.401l-2.198,1.401h-3.591c-2.614,0-4.794,1.984-5.038,4.58 l-0.106,0.974L141.46,152.01H35.738L0,198.04h55.954v119.166c-3.966,1.658-6.758,5.565-6.758,10.141 c0,2.26,0.695,4.361,1.866,6.106c-0.936,0.603-1.877,1.401-2.892,2.298c-0.919,0.757-1.349,1.412-1.948,2.124l-0.843,1.104 l-0.418,0.569l-0.219,0.298l-0.364,0.785c-0.465,1.067-0.892,2.212-1.335,3.384c-0.362,1.186-0.465,2.472-0.675,3.779 c-0.479,5.237,1.338,11.103,5.204,15.37c1.754,2.081,5.16,4.411,6.758,4.937l0.738,0.35l0.378,0.171l0.184,0.093l0.47,0.207 l0.027,0.012l0.064,0.021l0.122,0.022l2.006,0.486c1.325,0.345,2.64,0.58,3.973,0.498c2.63,0.154,5.133-0.465,7.313-1.214 c1.07-0.493,2.106-0.942,3.048-1.445c0.851-0.656,1.675-1.286,2.465-1.905c1.513-1.247,2.55-2.708,3.401-4.011 c0.747-1.434,1.39-2.653,1.587-3.628c0.381-1.985,0.514-3.173,0.514-3.173s-0.884,0.799-2.29,2.255 c-0.701,0.754-1.772,1.22-2.657,1.944c-1.058,0.572-2.309,1.24-3.62,1.71c-0.667,0.199-1.368,0.4-2.09,0.613 c-0.764,0.061-1.502,0.175-2.246,0.273c-1.519,0.055-3.073,0.077-4.581-0.339c-0.777-0.088-1.518-0.356-2.241-0.679l-0.974-0.355 v-0.006l-0.358-0.196l-0.711-0.405c-0.941-0.523-2.08-1.139-2.293-1.555c-0.443-0.476-0.968-0.695-1.438-1.438 c-1.09-1.134-1.919-2.522-2.551-3.951c-0.645-1.45-1.02-2.977-1.209-4.524c-0.014-0.772-0.112-1.549-0.101-2.32 c0.107-0.756,0.213-1.511,0.268-2.282l0.011-0.141l0.006-0.078l0.005-0.033c0.164-0.372-0.236,0.481-0.189,0.389l0.011-0.028 l0.117-0.333l0.247-0.667l0.46-1.303c0.285-0.859,0.536-1.827,0.872-2.209c0.476-0.714,0.854-1.522,1.33-2.278 c1.685,1.051,3.653,1.686,5.782,1.686c6.056,0,10.976-4.913,10.976-10.977c0-5.776-4.471-10.451-10.137-10.89V198.035h238.98 c5.696,12.276,18.11,20.81,32.534,20.81h5.075v246.986h-40.961v23.651h128.368v-23.651h-43.082V218.845h17.741v-19.8h34.627v31.166 h16.897v-31.166h14.353v31.166h16.893v-31.166h14.787c2.802,0,5.066-2.265,5.066-5.067v-35.894 C502.293,156.693,501.729,155.433,500.824,154.513z M358.854,25.866l0.038,0.039l4.197,35.056c-0.048,0-0.099-0.03-0.142-0.03 h-7.451L358.854,25.866z M354.52,71.062h8.428c0.472,0,0.883-0.145,1.318-0.268l2.927,24.499H352.19L354.52,71.062z M20.698,187.903l17.175-22.12l17.129,22.12H20.698z M47.875,162.142h51.832l-36.475,19.836L47.875,162.142z M73.555,187.903 l35.086-19.078l14.777,19.078H73.555z M116.287,162.142h58.166l-42.657,20.03L116.287,162.142z M143.438,187.903l41.506-19.494 l19.494,19.494H143.438z M193.005,162.142h45.869l-26.207,19.655L193.005,162.142z M221.415,187.903l30.936-23.201l24.489,23.201 H221.415z M291.581,187.903h-1.789c-0.126-1.138-0.584-2.241-1.483-3.091l-23.93-22.67h27.202V187.903z M296.647,131.438v20.572 H160.344L348.03,32.564l-6.009,62.729h-9.483v0.257C312.714,95.55,296.647,111.621,296.647,131.438z M371.811,463.293h-20.175 l20.175-21.286V463.293z M347.74,452.689v-46.53l19.475,25.965L347.74,452.689z M371.811,421.366l-21.689-28.926l21.689-21.689 V421.366z M347.74,380.486v-49.343l15.765,33.565L347.74,380.486z M371.811,358.547l-22.067-46.981l22.067-17.084V358.547z M347.74,300.293v-40.121l15.354,28.235L347.74,300.293z M371.811,283.22l-21.865-40.218l21.865-16.929V283.22z M347.74,231.89 v-13.039h16.837L347.74,231.89z M385.907,176.625h-42.024c-19.73,0-35.732-16-35.732-35.731c0-27.155,15.983-35.722,35.71-35.735 h31.956h10.091V176.625z M434.307,188.913h-34.621v-25.759h34.621V188.913z M465.552,188.913h-14.353v-25.759h14.353V188.913z M465.552,134.773v18.238h-14.353v-18.238h-16.897v18.238h-34.627V95.298h-22.271l-6.905-57.691l96.455,97.171h-1.401V134.773z M482.44,150.385l2.619,2.632h-2.619V150.385z M492.162,188.913h-9.718v-25.759h9.718V188.913z"/> </g> </g>
</svg>